<svg xmlns="http://www.w3.org/2000/svg" viewBox="0 0 1335 403.8" role="img" aria-label="osnatel">
  <path fill="#f4364c" d="M0,0h1335v403.8H0V0Z"/>
  <path fill="#fff" d="M269.5,153c-24.2-13.4-53.6-13.4-77.9,0-11.6,6.7-21.2,16.5-27.7,28.3-13.6,25.4-13.6,55.9,0,81.2,6.5,11.7,16.1,21.3,27.7,27.9,24.3,13.2,53.6,13.2,77.9,0,11.7-6.5,21.4-16.2,27.9-27.9,13.6-25.4,13.6-55.9,0-81.2-6.5-11.8-16.1-21.6-27.9-28.3ZM267.8,246.3c-3.6,6.9-8.9,12.7-15.5,16.7-13.3,7.9-29.9,7.9-43.2,0-6.6-4.1-12-9.8-15.6-16.7-4-7.6-6-16-5.8-24.6-.2-8.6,1.8-17.1,5.8-24.8,3.6-7,8.9-12.8,15.6-16.9,13.3-7.9,29.9-7.9,43.2,0,6.6,4.1,12,9.9,15.5,16.9,4,7.6,6,16.2,5.8,24.8.1,8.6-2,17-6,24.6h.2ZM420.2,216.3c-8.3-3.5-16.8-6.5-25.4-8.8-7.4-2.1-13-3.8-17.1-5.2-3.7-1.2-7.2-3.2-10-5.9-2.7-2.6-4.1-6.3-4-10.1,0-10.4,7.2-15.5,21.5-15.5,6.3-.1,12.5,1.1,18.2,3.7,5.1,2.2,9.6,5.6,13.1,9.9,2.7,2.7,6.4,4.1,10.2,4,3.3,0,6.5-1.1,9.1-3.1,3.4-2.5,5.4-6.5,5.4-10.7,0-3.7-1.3-7.3-3.7-10.2-5.9-7.3-13.8-12.8-22.6-15.9-9.2-3.5-19-5.3-28.8-5.4-9.3,0-18.5,1.8-27,5.5-8,3.4-15,8.8-20.4,15.6-5.2,6.7-7.9,15-7.8,23.5-.5,8.9,2.2,17.6,7.5,24.8,4.7,6,10.9,10.7,17.9,13.8,8.7,3.6,17.6,6.6,26.7,9,8.1,1.9,15.9,4.8,23.3,8.5,4.7,2.4,7.6,7.2,7.5,12.5,0,10.5-7.4,16.1-22,16.7-7.6.2-15.2-1.2-22.2-4.2-6.6-3.2-12.6-7.6-17.7-13-2.9-3.3-7-5.2-11.3-5.4-8.3.2-15,6.7-15.5,15-.1,3,.8,6,2.5,8.5,6.6,9.1,15.7,16.1,26.3,20.1,11.1,4.2,22.9,6.3,34.8,6.2,9.1,0,18.1-1.8,26.4-5.4,8.2-3.4,15.5-8.8,21.1-15.7,5.5-6.9,8.4-15.4,8.2-24.2.4-8.8-2-17.4-7.1-24.6-4.4-6-10.2-10.7-17-13.9h0ZM553,143c-9.5,0-18.9,2.5-27,7.4-7.7,4.5-14.5,10.5-19.9,17.6v-4.7c.2-4.6-1.5-9-4.7-12.3-6.8-6.6-17.5-6.6-24.3,0-3.2,3.3-4.9,7.8-4.7,12.3v116.9c-.1,4.6,1.5,9,4.7,12.3,6.8,6.6,17.5,6.6,24.3,0,3.2-3.3,4.9-7.7,4.7-12.3v-72.6c-.2-8.9,3.2-17.5,9.4-23.9,6.9-6.6,16.2-10,25.8-9.4,10.5,0,18,3,22.3,8.9,4.7,7.3,7,15.9,6.5,24.5v72.5c-.2,4.6,1.5,9,4.7,12.3,6.8,6.6,17.5,6.6,24.3,0,3.2-3.3,4.8-7.7,4.7-12.3v-72.5c0-20.2-3.7-36-11.1-47.4s-20.6-17.1-39.7-17.1h0ZM759.3,143c-4.5-.2-8.9,1.5-12.2,4.7-3.2,3.3-4.9,7.7-4.7,12.3v.3c-12.5-11.3-28.7-17.6-45.5-17.6-12.3-.1-24.3,3.4-34.7,10-10.7,7-19.2,16.8-24.7,28.3-6.2,12.6-9.3,26.6-9.1,40.6-.2,14,3,27.9,9.4,40.5,5.7,11.4,14.3,21,25,27.9,10.6,6.7,22.8,10.2,35.3,10,16.9-.2,33-7.3,44.4-19.8,0,4.5,1.8,8.9,5,12.1,3.2,3.2,7.5,4.9,12,4.7,4.5.2,9-1.5,12.2-4.7,3.2-3.3,4.8-7.7,4.7-12.3v-119.9c.2-4.6-1.5-9.1-4.7-12.4-3.3-3.3-7.8-5-12.5-4.8ZM732.2,255.5c-7.4,8.8-18.5,13.8-30,13.4-11.5.4-22.5-4.6-29.8-13.4-15.4-20-15.4-47.8,0-67.8,14.4-16.5,39.4-18.2,55.9-3.8,1.3,1.2,2.6,2.4,3.8,3.8,7.9,9.5,12,21.6,11.6,34,.5,12.3-3.6,24.3-11.5,33.8h0,0ZM932.2,176.5c4.5.1,8.8-1.6,12.1-4.7,3.1-3,4.8-7.3,4.7-11.6.2-4.5-1.5-8.9-4.7-12.1-3.2-3.1-7.6-4.9-12.1-4.7h-20.1v-18.1c.1-4.9-1.7-9.6-5.1-13.1-3.3-3.5-7.9-5.4-12.7-5.3-10-.2-18.2,7.8-18.3,17.8v18.7h-61.2c-4.5-.1-8.8,1.6-12.1,4.7-3.1,3-4.8,7.3-4.7,11.6-.2,9.1,7,16.6,16.1,16.9h62v80.1c0,16.8,4.2,28.3,12.6,33.2,9.3,5.4,19.9,8.1,30.6,7.7,6.9,0,13.8-1.8,19.6-5.5,8-4,11.2-13.8,7.1-21.8-.5-1-1.1-1.9-1.7-2.7-1.9-2.5-4.8-4-7.9-4.1-2.3,0-4.7.5-6.8,1.5-2,.6-4.1,1-6.3,1.1-3,.2-6-.8-8.3-2.6-2.2-2.2-3.3-5.3-3-8.4v-78.5h20.1ZM1080.3,148c-10.9-6.9-23.6-10.6-36.6-10.6-13,0-25.8,3.5-36.9,10.2-11.8,7-21.4,17.1-27.9,29.2-7.2,13.6-10.9,28.9-10.5,44.3-.2,14.2,3.2,28.1,10,40.6,6.5,11.9,16.3,21.7,28.3,28.3,13.2,7.1,28,10.6,42.9,10.3,9.5,0,18.9-1.6,27.8-4.7,7.9-2.5,15.4-6.4,22-11.4,5-3.3,8.1-8.8,8.4-14.7,0-4-1.8-7.9-4.7-10.6-5.2-5.3-12.7-6-21.1-1.8l-5.4,3.3c-3.3,2-6.8,3.5-10.5,4.7-6,1.6-12.2,2.4-18.4,2.2-10.1,0-20-3.3-27.9-9.6-8.1-6.5-13.7-15.6-15.6-25.8h95.3c4.8.1,9.4-1.5,13-4.7,3.6-2.9,5.7-7.2,5.8-11.8,0-13.6-3.6-26.9-10.5-38.6-6.6-11.6-16.1-21.4-27.5-28.5h0ZM1079.6,201.2h-74.9c4.1-20.3,17.3-30.6,39.1-30.6,8.8,0,17.3,3,24.1,8.6,6.5,4.9,10.7,12.4,11.6,20.5v1.5h0ZM1176.4,112c-3.3-3.5-7.9-5.4-12.6-5.3-4.9-.1-9.7,1.8-13.1,5.3-3.4,3.5-5.3,8.2-5.2,13.1v153.9c-.1,4.9,1.7,9.6,5.1,13.1,3.3,3.5,7.9,5.4,12.6,5.3,10,.2,18.2-7.7,18.4-17.7V125.1c0-4.9-1.8-9.6-5.2-13.1h0Z"/>
</svg>
